<svg
    fill="none"
    height="250"
    viewBox="0 0 1004 250"
    width="1004"
    xmlns="http://www.w3.org/2000/svg">
    <rect
        fill="#3178c6"
        height="250"
        rx="14"
        width="1004"/>
    <path
        clip-rule="evenodd"
        d="
            m150.518 200.475
				v27.62
				c4.492 2.302 9.805 4.028 15.938 5.179
				s12.597 1.726 19.393 1.726
				c6.622 0 12.914-.633 18.874-1.899
				s11.187-3.352 15.678-6.257
				c4.492-2.906 8.048-6.704 10.669-11.394 2.62-4.689 3.93-10.486 3.93-17.391 0-5.006-.749-9.394-2.246-13.163
				s-3.657-7.121-6.479-10.055
				c-2.821-2.935-6.205-5.567-10.149-7.898-3.945-2.33-8.394-4.531-13.347-6.602-3.628-1.497-6.881-2.949-9.761-4.359-2.879-1.41-5.327-2.848-7.342-4.316-2.016-1.467-3.571-3.021-4.665-4.661
				s-1.641-3.495-1.641-5.567
				c0-1.899.489-3.61 1.468-5.135
				s2.362-2.834 4.147-3.927
				c1.785-1.094 3.973-1.942 6.565-2.547 2.591-.604 5.471-.906 8.638-.906 2.304 0 4.737.173 7.299.518 2.563.345 5.14.877 7.732 1.597 2.591.719 5.11 1.625 7.558 2.719 2.447 1.093 4.708 2.359 6.781 3.797
				v-25.807
				c-4.204-1.611-8.797-2.805-13.778-3.582
				s-10.697-1.165-17.147-1.165
				c-6.565 0-12.784.705-18.658 2.115-5.874 1.409-11.043 3.61-15.506 6.602-4.463 2.993-7.99 6.805-10.582 11.437-2.591 4.632-3.887 10.17-3.887 16.615 0 8.228 2.375 15.248 7.127 21.06 4.751 5.811 11.963 10.731 21.638 14.759 3.801 1.554 7.343 3.078 10.625 4.575 3.283 1.496 6.119 3.049 8.509 4.66
				s4.276 3.366 5.658 5.265 2.073 4.057 2.073 6.474
				c0 1.783-.432 3.438-1.296 4.963-.863 1.524-2.174 2.848-3.93 3.97
				s-3.945 1.999-6.565 2.632-5.687.95-9.2.95
				c-5.989 0-11.92-1.05-17.794-3.151-5.875-2.1-11.317-5.25-16.327-9.451
            z
            
            m-46.036-68.733
				h35.518
				v-22.742
				h-99
				v22.742
				h35.3447
				v101.258
				h28.1373
            z"
        fill="#fff"
        fill-rule="evenodd"/>
        <path
            clip-rule="evenodd"
            d="
                m 613 188.697
                    v-9.373
                    c8.556 5.419 17.222 8.128 26 8.128 9.333 0 16.417-1.921 21.25-5.764
                    s7.25-9.22 7.25-16.132
                    c0-6.082-1.625-10.934-4.875-14.556-3.134-3.492-9.793-8.205-19.979-14.14
                    l-1.146-.664
                    c-12.111-7.023-19.778-12.898-23-17.625-3.222-4.728-4.833-10.188-4.833-16.381 0-8.4045 3.277-15.5372 9.833-21.3984 6.556-5.8611 15.306-8.7916 26.25-8.7916 7.111 0 14.222 1.1888 21.333 3.5664
                    v8.6258
                    c-7-3.1518-14.472-4.7276-22.416-4.7276-8.111 0-14.542 2.0458-19.292 6.1376-4.75 4.0917-7.125 9.2892-7.125 15.5928 0 6.082 1.625 10.92 4.875 14.514
                    s10.264 8.488 21.042 14.681
                    c11.166 6.303 18.597 11.902 22.291 16.795 3.695 4.894 5.542 10.52 5.542 16.878 0 9.124-3.181 16.561-9.542 22.311-6.361 5.751-15.347 8.626-26.958 8.626-4.111 0-8.847-.636-14.208-1.908-5.361-1.271-9.459-2.737-12.292-4.395
                z
                
                m-296.172-97.9341
                    h34.172
                    v-16.7629
                    h-88
                    v16.7629
                    h34.089
                    v102.2371
                    h19.739
                z
                
                m65.672 115.8431 38.5-98.606
                    h-19.5
                    l-21.333 61.919
                    c-.506 1.898-.903 3.443-1.19 4.636
                    l-.31 1.34
                    h-.417
                    c-.444-1.897-.798-3.379-1.061-4.445
                    l-.439-1.697-20.333-61.753
                    h-21.417
                    l33.917 84.827-5.75 13.945
                    c-3.556 7.082-8.945 10.624-16.167 10.624-2.5 0-5.278-.498-8.333-1.494
                    v16.019
                    c2.722.719 6.111 1.079 10.166 1.079 14.445 0 25.667-8.798 33.667-26.394
                z

                m70.147-26.2
                    h-.333
                    v51.594
                    h-19.314
                    v-124.009
                    h19.314
                    v14.931
                    h.333
                    c6.604-11.282 16.261-16.922 28.971-16.922 10.822 0 19.258 3.788 25.308 11.364 6.049 7.576 9.074 17.751 9.074 30.525 0 14.157-3.413 25.493-10.24 34.01-6.826 8.516-16.15 12.774-27.972 12.774-10.878 0-19.258-4.756-25.141-14.267
                z
                
                m-.647-22.517
                    v-10.478
                    c0-7.26 2.093-13.31 6.28-18.151 4.186-4.84 9.717-7.26 16.593-7.26 6.488 0 11.631 2.351 15.429 7.054 3.799 4.703 5.698 11.207 5.698 19.512 0 9.901-2.038 17.615-6.113 23.142-4.076 5.528-9.69 8.292-16.844 8.292-6.099 0-11.131-2.145-15.096-6.435
                    s-5.947-9.516-5.947-15.676
                z
                
                m151-2.159
                    h-57.606
                    c.221 7.86 2.628 13.92 7.222 18.182
                    s10.907 6.393 18.94 6.393
                    c9.024 0 17.304-2.712 24.842-8.136
                    v15.525
                    c-7.703 4.871-17.882 7.306-30.536 7.306-12.435 0-22.187-3.861-29.257-11.582
                    s-10.605-18.583-10.605-32.586
                    c0-13.228 3.893-24.007 11.678-32.337
                    s17.455-12.495 29.009-12.495 20.495 3.736 26.822 11.208 9.491 17.85 9.491 31.133
                    zm-22.854-29.938
                    c3.181 3.861 4.799 9.264 4.854 16.208
                    h-39
                    c.878-6.556 3.223-11.861 7.035-15.917 3.812-4.055 8.461-6.083 13.946-6.083 5.595 0 9.983 1.931 13.165 5.792
				z

                m144.761 69.208
                    c8.813 0 16.399-1.934 22.758-5.801
                    v-7.955
                    c-6.359 4.53-13.833 6.795-22.423 6.795-9.372 0-16.916-3.342-22.633-10.027-5.718-6.685-8.577-15.524-8.577-26.518 0-11.38 3.124-20.647 9.372-27.802 6.247-7.154 14.391-10.731 24.431-10.731 7.308 0 14.029 1.878 20.165 5.635
                    v-8.618
                    c-6.136-2.652-12.467-3.978-18.993-3.978-12.607 0-22.926 4.295-30.958 12.886-8.033 8.591-12.049 19.626-12.049 33.106 0 12.817 3.57 23.189 10.71 31.116 7.14 7.928 16.539 11.892 28.197 11.892
				z

                m73.093-79.333
                    c-2.54-1.834-5.521-2.75-8.944-2.75-6.681 0-12.284 3.472-16.812 10.416-4.527 6.945-6.791 16.806-6.791 29.584
                    v40.083
                    h-7.453
                    v-85.333
                    h7.453
                    v18.916
                    h.332
                    c1.932-6.5 4.996-11.555 9.192-15.166
                    s9.055-5.417 14.576-5.417
                    c3.147 0 5.963.5 8.447 1.5
				z

                m11.942-30.5486
				    c1.294 1.2544 2.785 1.8816 4.474 1.8816 1.8 0 3.348-.6557 4.642-1.9671 1.295-1.3114 1.942-2.8794 1.942-4.704 0-1.9386-.661-3.478-1.984-4.6184-1.322-1.1403-2.856-1.7105-4.6-1.7105-1.632 0-3.11.5844-4.432 1.7533-1.323 1.1689-1.984 2.6941-1.984 4.5756 0 1.9387.647 3.5351 1.942 4.7895
				z

                m.058 107.8816
                    v-85
                    h8
                    v85
				z

                m33.624-15.13
                    h.331
                    c6.077 11.439 15.469 17.159 28.175 17.159 11.38 0 20.537-4.38 27.47-13.139
                    s10.4-20.24 10.4-34.443
                    c0-12.765-3.025-22.865-9.074-30.298
                    s-14.46-11.149-25.233-11.149
                    c-6.795 0-13.024 1.699-18.686 5.098-5.663 3.399-10.013 8.22-13.052 14.465
                    h-.331
                    v-17.491
                    h-7.624
                    v123.928
                    h7.624
				z

                m.376-31.592
                    v10.679
                    c0 8.499 2.706 15.797 8.118 21.896 5.412 6.098 12.525 9.147 21.34 9.147 8.76 0 15.873-3.711 21.341-11.134 5.467-7.423 8.201-17.177 8.201-29.263 0-10.596-2.511-19.012-7.532-25.249-5.021-6.236-11.716-9.354-20.085-9.354-9.987 0-17.714 3.311-23.182 9.934-5.467 6.622-8.201 14.404-8.201 23.344
				z

                m102.874 48.722
                    c3.461 0 7.17-.938 11.126-2.814
                    v-7.119
                    c-3.626 2.042-7.005 3.063-10.137 3.063-4.396 0-7.514-1.311-9.355-3.932-1.84-2.621-2.761-6.856-2.761-12.706
                    v-55.955
                    h22.253
                    v-6.953
                    h-22.253
                    v-24.584
                    c-1.209.4415-2.472.8553-3.791 1.2416-1.319.4415-2.582.8829-3.791 1.3244
                    v22.018
                    h-15.165
                    v6.953
                    h15.165
                    v56.948
                    c0 15.01 6.236 22.515 18.709 22.515
				z"
                fill="#fff"
                fill-rule="evenodd"/>
</svg>